<?xml version="1.0" encoding="UTF-8" standalone="no"?><svg xmlns="http://www.w3.org/2000/svg" xmlns:xlink="http://www.w3.org/1999/xlink" contentScriptType="application/ecmascript" contentStyleType="text/css" height="625px" preserveAspectRatio="none" style="width:1055px;height:625px;background:#FFFFFF;" version="1.1" viewBox="0 0 1055 625" width="1055px" zoomAndPan="magnify"><defs/><g><rect fill="#FEFECE" height="23.1201" rx="5" ry="5" style="stroke:#FEFECE;stroke-width:1.5;" width="65" x="10" y="405"/><text fill="#000000" font-family="sans-serif" font-size="14" lengthAdjust="spacing" textLength="33" x="15" y="423.0439">client</text><text fill="#000000" font-family="sans-serif" font-size="14" lengthAdjust="spacing" textLength="0" x="70" y="423.0439"/><line style="stroke:#A80036;stroke-width:1.0;" x1="53" x2="53" y1="405" y2="428.1201"/><rect fill="none" height="23.1201" rx="5" ry="5" style="stroke:#A80036;stroke-width:1.5;" width="65" x="10" y="405"/><rect fill="#FEFECE" height="184.9609" rx="5" ry="5" style="stroke:#FEFECE;stroke-width:1.5;" width="126" x="112" y="324"/><text fill="#000000" font-family="sans-serif" font-size="14" lengthAdjust="spacing" textLength="27" x="117" y="342.0439">type</text><text fill="#000000" font-family="sans-serif" font-size="14" lengthAdjust="spacing" textLength="36" x="197" y="342.0439">HTTP</text><line style="stroke:#A80036;stroke-width:1.0;" x1="192" x2="192" y1="324" y2="347.1201"/><line style="stroke:#A80036;stroke-width:1.0;" x1="112" x2="238" y1="347.1201" y2="347.1201"/><text fill="#000000" font-family="sans-serif" font-size="14" lengthAdjust="spacing" textLength="35" x="117" y="365.1641">result</text><text fill="#000000" font-family="sans-serif" font-size="14" lengthAdjust="spacing" textLength="0" x="209" y="365.1641"/><line style="stroke:#A80036;stroke-width:1.0;" x1="192" x2="192" y1="347.1201" y2="370.2402"/><line style="stroke:#A80036;stroke-width:1.0;" x1="112" x2="238" y1="370.2402" y2="370.2402"/><text fill="#000000" font-family="sans-serif" font-size="14" lengthAdjust="spacing" textLength="35" x="117" y="388.2842">count</text><text fill="#000000" font-family="sans-serif" font-size="14" lengthAdjust="spacing" textLength="8" x="197" y="388.2842">3</text><line style="stroke:#A80036;stroke-width:1.0;" x1="192" x2="192" y1="370.2402" y2="393.3604"/><line style="stroke:#A80036;stroke-width:1.0;" x1="112" x2="238" y1="393.3604" y2="393.3604"/><text fill="#000000" font-family="sans-serif" font-size="14" lengthAdjust="spacing" textLength="46" x="117" y="411.4043">is_auth</text><text fill="#000000" font-family="sans-serif" font-size="14" lengthAdjust="spacing" textLength="25" x="197" y="411.4043">true</text><line style="stroke:#A80036;stroke-width:1.0;" x1="192" x2="192" y1="393.3604" y2="416.4805"/><line style="stroke:#A80036;stroke-width:1.0;" x1="112" x2="238" y1="416.4805" y2="416.4805"/><text fill="#000000" font-family="sans-serif" font-size="14" lengthAdjust="spacing" textLength="28" x="117" y="434.5244">auth</text><text fill="#000000" font-family="sans-serif" font-size="14" lengthAdjust="spacing" textLength="0" x="209" y="434.5244"/><line style="stroke:#A80036;stroke-width:1.0;" x1="192" x2="192" y1="416.4805" y2="439.6006"/><line style="stroke:#A80036;stroke-width:1.0;" x1="112" x2="238" y1="439.6006" y2="439.6006"/><text fill="#000000" font-family="sans-serif" font-size="14" lengthAdjust="spacing" textLength="48" x="117" y="457.6445">request</text><text fill="#000000" font-family="sans-serif" font-size="14" lengthAdjust="spacing" textLength="0" x="209" y="457.6445"/><line style="stroke:#A80036;stroke-width:1.0;" x1="192" x2="192" y1="439.6006" y2="462.7207"/><line style="stroke:#A80036;stroke-width:1.0;" x1="112" x2="238" y1="462.7207" y2="462.7207"/><text fill="#000000" font-family="sans-serif" font-size="14" lengthAdjust="spacing" textLength="24" x="117" y="480.7646">http</text><text fill="#000000" font-family="sans-serif" font-size="14" lengthAdjust="spacing" textLength="0" x="209" y="480.7646"/><line style="stroke:#A80036;stroke-width:1.0;" x1="192" x2="192" y1="462.7207" y2="485.8408"/><line style="stroke:#A80036;stroke-width:1.0;" x1="112" x2="238" y1="485.8408" y2="485.8408"/><text fill="#000000" font-family="sans-serif" font-size="14" lengthAdjust="spacing" textLength="70" x="117" y="503.8848">webservice</text><text fill="#000000" font-family="sans-serif" font-size="14" lengthAdjust="spacing" textLength="0" x="209" y="503.8848"/><line style="stroke:#A80036;stroke-width:1.0;" x1="192" x2="192" y1="485.8408" y2="508.9609"/><rect fill="none" height="184.9609" rx="5" ry="5" style="stroke:#A80036;stroke-width:1.5;" width="126" x="112" y="324"/><rect fill="#FEFECE" height="69.3604" rx="5" ry="5" style="stroke:#FEFECE;stroke-width:1.5;" width="126" x="474" y="10"/><text fill="#000000" font-family="sans-serif" font-size="14" lengthAdjust="spacing" textLength="63" x="479" y="28.0439">date_type</text><text fill="#000000" font-family="sans-serif" font-size="14" lengthAdjust="spacing" textLength="35" x="552" y="28.0439">JSON</text><line style="stroke:#A80036;stroke-width:1.0;" x1="547" x2="547" y1="10" y2="33.1201"/><line style="stroke:#A80036;stroke-width:1.0;" x1="474" x2="600" y1="33.1201" y2="33.1201"/><text fill="#000000" font-family="sans-serif" font-size="14" lengthAdjust="spacing" textLength="31" x="479" y="51.1641">code</text><text fill="#000000" font-family="sans-serif" font-size="14" lengthAdjust="spacing" textLength="43" x="552" y="51.1641">$.code</text><line style="stroke:#A80036;stroke-width:1.0;" x1="547" x2="547" y1="33.1201" y2="56.2402"/><line style="stroke:#A80036;stroke-width:1.0;" x1="474" x2="600" y1="56.2402" y2="56.2402"/><text fill="#000000" font-family="sans-serif" font-size="14" lengthAdjust="spacing" textLength="26" x="479" y="74.2842">msg</text><text fill="#000000" font-family="sans-serif" font-size="14" lengthAdjust="spacing" textLength="38" x="552" y="74.2842">$.msg</text><line style="stroke:#A80036;stroke-width:1.0;" x1="547" x2="547" y1="56.2402" y2="79.3604"/><rect fill="none" height="69.3604" rx="5" ry="5" style="stroke:#A80036;stroke-width:1.5;" width="126" x="474" y="10"/><rect fill="#FEFECE" height="300.5615" rx="5" ry="5" style="stroke:#FEFECE;stroke-width:1.5;" width="206" x="434" y="97"/><text fill="#000000" font-family="sans-serif" font-size="14" lengthAdjust="spacing" textLength="16" x="439" y="115.0439">url</text><text fill="#000000" font-family="sans-serif" font-size="14" lengthAdjust="spacing" textLength="103" x="532" y="115.0439">http://ip:port/abc</text><line style="stroke:#A80036;stroke-width:1.0;" x1="527" x2="527" y1="97" y2="120.1201"/><line style="stroke:#A80036;stroke-width:1.0;" x1="434" x2="640" y1="120.1201" y2="120.1201"/><text fill="#000000" font-family="sans-serif" font-size="14" lengthAdjust="spacing" textLength="68" x="439" y="138.1641">grant_type</text><text fill="#000000" font-family="sans-serif" font-size="14" lengthAdjust="spacing" textLength="48" x="532" y="138.1641">QUERY</text><line style="stroke:#A80036;stroke-width:1.0;" x1="527" x2="527" y1="120.1201" y2="143.2402"/><line style="stroke:#A80036;stroke-width:1.0;" x1="434" x2="640" y1="143.2402" y2="143.2402"/><text fill="#000000" font-family="sans-serif" font-size="14" lengthAdjust="spacing" textLength="83" x="439" y="161.2842">request_type</text><text fill="#000000" font-family="sans-serif" font-size="14" lengthAdjust="spacing" textLength="79" x="532" y="161.2842">AUTH_JSON</text><line style="stroke:#A80036;stroke-width:1.0;" x1="527" x2="527" y1="143.2402" y2="166.3604"/><line style="stroke:#A80036;stroke-width:1.0;" x1="434" x2="640" y1="166.3604" y2="166.3604"/><text fill="#000000" font-family="sans-serif" font-size="14" lengthAdjust="spacing" textLength="53" x="439" y="184.4043">xml_root</text><text fill="#000000" font-family="sans-serif" font-size="14" lengthAdjust="spacing" textLength="25" x="532" y="184.4043">root</text><line style="stroke:#A80036;stroke-width:1.0;" x1="527" x2="527" y1="166.3604" y2="189.4805"/><line style="stroke:#A80036;stroke-width:1.0;" x1="434" x2="640" y1="189.4805" y2="189.4805"/><text fill="#000000" font-family="sans-serif" font-size="14" lengthAdjust="spacing" textLength="47" x="439" y="207.5244">method</text><text fill="#000000" font-family="sans-serif" font-size="14" lengthAdjust="spacing" textLength="38" x="532" y="207.5244">POST</text><line style="stroke:#A80036;stroke-width:1.0;" x1="527" x2="527" y1="189.4805" y2="212.6006"/><line style="stroke:#A80036;stroke-width:1.0;" x1="434" x2="640" y1="212.6006" y2="212.6006"/><text fill="#000000" font-family="sans-serif" font-size="14" lengthAdjust="spacing" textLength="28" x="439" y="230.6445">data</text><text fill="#000000" font-family="sans-serif" font-size="14" lengthAdjust="spacing" textLength="0" x="544" y="230.6445"/><line style="stroke:#A80036;stroke-width:1.0;" x1="527" x2="527" y1="212.6006" y2="235.7207"/><line style="stroke:#A80036;stroke-width:1.0;" x1="434" x2="640" y1="235.7207" y2="235.7207"/><text fill="#000000" font-family="sans-serif" font-size="14" lengthAdjust="spacing" textLength="63" x="439" y="253.7646">username</text><text fill="#000000" font-family="sans-serif" font-size="14" lengthAdjust="spacing" textLength="46" x="532" y="253.7646">zhangh</text><line style="stroke:#A80036;stroke-width:1.0;" x1="527" x2="527" y1="235.7207" y2="258.8408"/><line style="stroke:#A80036;stroke-width:1.0;" x1="434" x2="640" y1="258.8408" y2="258.8408"/><text fill="#000000" font-family="sans-serif" font-size="14" lengthAdjust="spacing" textLength="60" x="439" y="276.8848">password</text><text fill="#000000" font-family="sans-serif" font-size="14" lengthAdjust="spacing" textLength="48" x="532" y="276.8848">123456</text><line style="stroke:#A80036;stroke-width:1.0;" x1="527" x2="527" y1="258.8408" y2="281.9609"/><line style="stroke:#A80036;stroke-width:1.0;" x1="434" x2="640" y1="281.9609" y2="281.9609"/><text fill="#000000" font-family="sans-serif" font-size="14" lengthAdjust="spacing" textLength="64" x="439" y="300.0049">expires_in</text><text fill="#000000" font-family="sans-serif" font-size="14" lengthAdjust="spacing" textLength="32" x="532" y="300.0049">3600</text><line style="stroke:#A80036;stroke-width:1.0;" x1="527" x2="527" y1="281.9609" y2="305.0811"/><line style="stroke:#A80036;stroke-width:1.0;" x1="434" x2="640" y1="305.0811" y2="305.0811"/><text fill="#000000" font-family="sans-serif" font-size="14" lengthAdjust="spacing" textLength="70" x="439" y="323.125">result_type</text><text fill="#000000" font-family="sans-serif" font-size="14" lengthAdjust="spacing" textLength="79" x="532" y="323.125">AUTH_JSON</text><line style="stroke:#A80036;stroke-width:1.0;" x1="527" x2="527" y1="305.0811" y2="328.2012"/><line style="stroke:#A80036;stroke-width:1.0;" x1="434" x2="640" y1="328.2012" y2="328.2012"/><text fill="#000000" font-family="sans-serif" font-size="14" lengthAdjust="spacing" textLength="35" x="439" y="346.2451">token</text><text fill="#000000" font-family="sans-serif" font-size="14" lengthAdjust="spacing" textLength="99" x="532" y="346.2451">$.access_token</text><line style="stroke:#A80036;stroke-width:1.0;" x1="527" x2="527" y1="328.2012" y2="351.3213"/><line style="stroke:#A80036;stroke-width:1.0;" x1="434" x2="640" y1="351.3213" y2="351.3213"/><text fill="#000000" font-family="sans-serif" font-size="14" lengthAdjust="spacing" textLength="31" x="439" y="369.3652">code</text><text fill="#000000" font-family="sans-serif" font-size="14" lengthAdjust="spacing" textLength="43" x="532" y="369.3652">$.code</text><line style="stroke:#A80036;stroke-width:1.0;" x1="527" x2="527" y1="351.3213" y2="374.4414"/><line style="stroke:#A80036;stroke-width:1.0;" x1="434" x2="640" y1="374.4414" y2="374.4414"/><text fill="#000000" font-family="sans-serif" font-size="14" lengthAdjust="spacing" textLength="58" x="439" y="392.4854">auth_key</text><text fill="#000000" font-family="sans-serif" font-size="14" lengthAdjust="spacing" textLength="95" x="532" y="392.4854">access_token=</text><line style="stroke:#A80036;stroke-width:1.0;" x1="527" x2="527" y1="374.4414" y2="397.5615"/><rect fill="none" height="300.5615" rx="5" ry="5" style="stroke:#A80036;stroke-width:1.5;" width="206" x="434" y="97"/><rect fill="#FEFECE" height="46.2402" rx="5" ry="5" style="stroke:#FEFECE;stroke-width:1.5;" width="146" x="866.5" y="200.5"/><text fill="#000000" font-family="sans-serif" font-size="14" lengthAdjust="spacing" textLength="63" x="871.5" y="218.5439">username</text><text fill="#000000" font-family="sans-serif" font-size="14" lengthAdjust="spacing" textLength="63" x="944.5" y="218.5439">username</text><line style="stroke:#A80036;stroke-width:1.0;" x1="939.5" x2="939.5" y1="200.5" y2="223.6201"/><line style="stroke:#A80036;stroke-width:1.0;" x1="866.5" x2="1012.5" y1="223.6201" y2="223.6201"/><text fill="#000000" font-family="sans-serif" font-size="14" lengthAdjust="spacing" textLength="60" x="871.5" y="241.6641">password</text><text fill="#000000" font-family="sans-serif" font-size="14" lengthAdjust="spacing" textLength="60" x="944.5" y="241.6641">password</text><line style="stroke:#A80036;stroke-width:1.0;" x1="939.5" x2="939.5" y1="223.6201" y2="246.7402"/><rect fill="none" height="46.2402" rx="5" ry="5" style="stroke:#A80036;stroke-width:1.5;" width="146" x="866.5" y="200.5"/><rect fill="#FEFECE" height="69.3604" rx="5" ry="5" style="stroke:#FEFECE;stroke-width:1.5;" width="118" x="478" y="416"/><text fill="#000000" font-family="sans-serif" font-size="14" lengthAdjust="spacing" textLength="63" x="483" y="434.0439">data_type</text><text fill="#000000" font-family="sans-serif" font-size="14" lengthAdjust="spacing" textLength="35" x="556" y="434.0439">JSON</text><line style="stroke:#A80036;stroke-width:1.0;" x1="551" x2="551" y1="416" y2="439.1201"/><line style="stroke:#A80036;stroke-width:1.0;" x1="478" x2="596" y1="439.1201" y2="439.1201"/><text fill="#000000" font-family="sans-serif" font-size="14" lengthAdjust="spacing" textLength="53" x="483" y="457.1641">xml_root</text><text fill="#000000" font-family="sans-serif" font-size="14" lengthAdjust="spacing" textLength="25" x="556" y="457.1641">root</text><line style="stroke:#A80036;stroke-width:1.0;" x1="551" x2="551" y1="439.1201" y2="462.2402"/><line style="stroke:#A80036;stroke-width:1.0;" x1="478" x2="596" y1="462.2402" y2="462.2402"/><text fill="#000000" font-family="sans-serif" font-size="14" lengthAdjust="spacing" textLength="28" x="483" y="480.2842">data</text><text fill="#000000" font-family="sans-serif" font-size="14" lengthAdjust="spacing" textLength="0" x="568" y="480.2842"/><line style="stroke:#A80036;stroke-width:1.0;" x1="551" x2="551" y1="462.2402" y2="485.3604"/><rect fill="none" height="69.3604" rx="5" ry="5" style="stroke:#A80036;stroke-width:1.5;" width="118" x="478" y="416"/><rect fill="#FEFECE" height="208.0811" rx="5" ry="5" style="stroke:#FEFECE;stroke-width:1.5;" width="207" x="836" y="369.5"/><text fill="#000000" font-family="sans-serif" font-size="14" lengthAdjust="spacing" textLength="80" x="841" y="387.5439">device_code</text><text fill="#000000" font-family="sans-serif" font-size="14" lengthAdjust="spacing" textLength="15" x="952" y="387.5439">sn</text><line style="stroke:#A80036;stroke-width:1.0;" x1="947" x2="947" y1="369.5" y2="392.6201"/><line style="stroke:#A80036;stroke-width:1.0;" x1="836" x2="1043" y1="392.6201" y2="392.6201"/><text fill="#000000" font-family="sans-serif" font-size="14" lengthAdjust="spacing" textLength="65" x="841" y="410.6641">contact_id</text><text fill="#000000" font-family="sans-serif" font-size="14" lengthAdjust="spacing" textLength="57" x="952" y="410.6641">contactId</text><line style="stroke:#A80036;stroke-width:1.0;" x1="947" x2="947" y1="392.6201" y2="415.7402"/><line style="stroke:#A80036;stroke-width:1.0;" x1="836" x2="1043" y1="415.7402" y2="415.7402"/><text fill="#000000" font-family="sans-serif" font-size="14" lengthAdjust="spacing" textLength="39" x="841" y="433.7842">cdr_id</text><text fill="#000000" font-family="sans-serif" font-size="14" lengthAdjust="spacing" textLength="28" x="952" y="433.7842">path</text><line style="stroke:#A80036;stroke-width:1.0;" x1="947" x2="947" y1="415.7402" y2="438.8604"/><line style="stroke:#A80036;stroke-width:1.0;" x1="836" x2="1043" y1="438.8604" y2="438.8604"/><text fill="#000000" font-family="sans-serif" font-size="14" lengthAdjust="spacing" textLength="82" x="841" y="456.9043">cdr_timestart</text><text fill="#000000" font-family="sans-serif" font-size="14" lengthAdjust="spacing" textLength="59" x="952" y="456.9043">startTime</text><line style="stroke:#A80036;stroke-width:1.0;" x1="947" x2="947" y1="438.8604" y2="461.9805"/><line style="stroke:#A80036;stroke-width:1.0;" x1="836" x2="1043" y1="461.9805" y2="461.9805"/><text fill="#000000" font-family="sans-serif" font-size="14" lengthAdjust="spacing" textLength="96" x="841" y="480.0244">cdr_strduration</text><text fill="#000000" font-family="sans-serif" font-size="14" lengthAdjust="spacing" textLength="65" x="952" y="480.0244">callLength</text><line style="stroke:#A80036;stroke-width:1.0;" x1="947" x2="947" y1="461.9805" y2="485.1006"/><line style="stroke:#A80036;stroke-width:1.0;" x1="836" x2="1043" y1="485.1006" y2="485.1006"/><text fill="#000000" font-family="sans-serif" font-size="14" lengthAdjust="spacing" textLength="71" x="841" y="503.1445">cdr_recflag</text><text fill="#000000" font-family="sans-serif" font-size="14" lengthAdjust="spacing" textLength="74" x="952" y="503.1445">callRecFlag</text><line style="stroke:#A80036;stroke-width:1.0;" x1="947" x2="947" y1="485.1006" y2="508.2207"/><line style="stroke:#A80036;stroke-width:1.0;" x1="836" x2="1043" y1="508.2207" y2="508.2207"/><text fill="#000000" font-family="sans-serif" font-size="14" lengthAdjust="spacing" textLength="55" x="841" y="526.2646">cdr_type</text><text fill="#000000" font-family="sans-serif" font-size="14" lengthAdjust="spacing" textLength="53" x="952" y="526.2646">callType</text><line style="stroke:#A80036;stroke-width:1.0;" x1="947" x2="947" y1="508.2207" y2="531.3408"/><line style="stroke:#A80036;stroke-width:1.0;" x1="836" x2="1043" y1="531.3408" y2="531.3408"/><text fill="#000000" font-family="sans-serif" font-size="14" lengthAdjust="spacing" textLength="101" x="841" y="549.3848">dial_info_phone</text><text fill="#000000" font-family="sans-serif" font-size="14" lengthAdjust="spacing" textLength="86" x="952" y="549.3848">dialInfoPhone</text><line style="stroke:#A80036;stroke-width:1.0;" x1="947" x2="947" y1="531.3408" y2="554.4609"/><line style="stroke:#A80036;stroke-width:1.0;" x1="836" x2="1043" y1="554.4609" y2="554.4609"/><text fill="#000000" font-family="sans-serif" font-size="14" lengthAdjust="spacing" textLength="96" x="841" y="572.5049">dial_info_name</text><text fill="#000000" font-family="sans-serif" font-size="14" lengthAdjust="spacing" textLength="81" x="952" y="572.5049">dialInfoName</text><line style="stroke:#A80036;stroke-width:1.0;" x1="947" x2="947" y1="554.4609" y2="577.5811"/><rect fill="none" height="208.0811" rx="5" ry="5" style="stroke:#A80036;stroke-width:1.5;" width="207" x="836" y="369.5"/><rect fill="#FEFECE" height="46.2402" rx="5" ry="5" style="stroke:#FEFECE;stroke-width:1.5;" width="174" x="450" y="503.5"/><text fill="#000000" font-family="sans-serif" font-size="14" lengthAdjust="spacing" textLength="47" x="455" y="521.5439">method</text><text fill="#000000" font-family="sans-serif" font-size="14" lengthAdjust="spacing" textLength="38" x="512" y="521.5439">POST</text><line style="stroke:#A80036;stroke-width:1.0;" x1="507" x2="507" y1="503.5" y2="526.6201"/><line style="stroke:#A80036;stroke-width:1.0;" x1="450" x2="624" y1="526.6201" y2="526.6201"/><text fill="#000000" font-family="sans-serif" font-size="14" lengthAdjust="spacing" textLength="16" x="455" y="544.6641">url</text><text fill="#000000" font-family="sans-serif" font-size="14" lengthAdjust="spacing" textLength="107" x="512" y="544.6641">http://ip:port/post</text><line style="stroke:#A80036;stroke-width:1.0;" x1="507" x2="507" y1="526.6201" y2="549.7402"/><rect fill="none" height="46.2402" rx="5" ry="5" style="stroke:#A80036;stroke-width:1.5;" width="174" x="450" y="503.5"/><rect fill="#FEFECE" height="46.2402" rx="5" ry="5" style="stroke:#FEFECE;stroke-width:1.5;" width="524" x="275" y="567.5"/><text fill="#000000" font-family="sans-serif" font-size="14" lengthAdjust="spacing" textLength="19" x="280" y="585.5439">wsl</text><text fill="#000000" font-family="sans-serif" font-size="14" lengthAdjust="spacing" textLength="457" x="337" y="585.5439">http://ip:port/interfaces/sg/kx01/info/service/PreInfoApplyWebService?wsl</text><line style="stroke:#A80036;stroke-width:1.0;" x1="332" x2="332" y1="567.5" y2="590.6201"/><line style="stroke:#A80036;stroke-width:1.0;" x1="275" x2="799" y1="590.6201" y2="590.6201"/><text fill="#000000" font-family="sans-serif" font-size="14" lengthAdjust="spacing" textLength="47" x="280" y="608.6641">method</text><text fill="#000000" font-family="sans-serif" font-size="14" lengthAdjust="spacing" textLength="49" x="337" y="608.6641">getUser</text><line style="stroke:#A80036;stroke-width:1.0;" x1="332" x2="332" y1="590.6201" y2="613.7402"/><rect fill="none" height="46.2402" rx="5" ry="5" style="stroke:#A80036;stroke-width:1.5;" width="524" x="275" y="567.5"/><path d="M226,358.5 L239,358.5 C299.7513,358.5 232.7114,131.1164 275,87.5 C323.8337,37.1331 407.2651,31.5104 466.7558,35.1992 " fill="none" style="stroke:#A80036;stroke-width:1.0;stroke-dasharray:3.0,3.0;"/><path d="M466.5472,38.1981 L469.005,35.3557 L466.9645,32.2003 L474.2531,35.7208 L466.5472,38.1981 " fill="#A80036" style="stroke:#A80036;stroke-width:1.0;"/><ellipse cx="226" cy="358.5" fill="#A80036" rx="3" ry="3" style="stroke:#A80036;stroke-width:1.0;stroke-dasharray:3.0,3.0;"/><path d="M628.5,223.5 L641.5,223.5 C715.301,223.5 799.4002,223.5 859.3094,223.5 " fill="none" style="stroke:#A80036;stroke-width:1.0;stroke-dasharray:3.0,3.0;"/><path d="M859.3094,226.5206 L861.5749,223.5 L859.3094,220.4794 L866.8609,223.5 L859.3094,226.5206 " fill="#A80036" style="stroke:#A80036;stroke-width:1.0;"/><ellipse cx="628.5" cy="223.5" fill="#A80036" rx="3" ry="3" style="stroke:#A80036;stroke-width:1.0;stroke-dasharray:3.0,3.0;"/><path d="M226,427.5 L239,427.5 C241.836,427.5 343.9344,365.4268 427.7354,314.1842 " fill="none" style="stroke:#A80036;stroke-width:1.0;stroke-dasharray:3.0,3.0;"/><path d="M429.328,316.7883 L429.6885,312.9897 L426.1428,311.5801 L434.2456,310.2026 L429.328,316.7883 " fill="#A80036" style="stroke:#A80036;stroke-width:1.0;"/><ellipse cx="226" cy="427.5" fill="#A80036" rx="3" ry="3" style="stroke:#A80036;stroke-width:1.0;stroke-dasharray:3.0,3.0;"/><path d="M584.5,473.5 L597.5,473.5 C674.7116,473.5 761.7428,473.5 828.6213,473.5 " fill="none" style="stroke:#A80036;stroke-width:1.0;stroke-dasharray:3.0,3.0;"/><path d="M828.6213,476.5564 L830.9136,473.5 L828.6213,470.4436 L836.2622,473.5 L828.6213,476.5564 " fill="#A80036" style="stroke:#A80036;stroke-width:1.0;"/><ellipse cx="584.5" cy="473.5" fill="#A80036" rx="3" ry="3" style="stroke:#A80036;stroke-width:1.0;stroke-dasharray:3.0,3.0;"/><path d="M226,450.5 L239,450.5 C318.7447,450.5 410.5132,450.5 470.7954,450.5 " fill="none" style="stroke:#A80036;stroke-width:1.0;stroke-dasharray:3.0,3.0;"/><path d="M470.7954,453.5234 L473.063,450.5 L470.7954,447.4766 L478.354,450.5 L470.7954,453.5234 " fill="#A80036" style="stroke:#A80036;stroke-width:1.0;"/><ellipse cx="226" cy="450.5" fill="#A80036" rx="3" ry="3" style="stroke:#A80036;stroke-width:1.0;stroke-dasharray:3.0,3.0;"/><path d="M226,473.5 L239,473.5 C257.5233,473.5 257.4459,488.5868 275,494.5 C328.803,512.624 391.9101,520.6956 442.6494,524.202 " fill="none" style="stroke:#A80036;stroke-width:1.0;stroke-dasharray:3.0,3.0;"/><path d="M442.4476,527.2874 L444.9634,524.3534 L442.8513,521.1167 L450.3628,524.7067 L442.4476,527.2874 " fill="#A80036" style="stroke:#A80036;stroke-width:1.0;"/><ellipse cx="226" cy="473.5" fill="#A80036" rx="3" ry="3" style="stroke:#A80036;stroke-width:1.0;stroke-dasharray:3.0,3.0;"/><path d="M226,497.5 L239,497.5 C270.4803,497.5 248.6627,541.2558 275,558.5 C277.7444,560.2969 280.5402,562.0181 283.3824,563.6667 " fill="none" style="stroke:#A80036;stroke-width:1.0;stroke-dasharray:3.0,3.0;"/><path d="M281.8961,566.3522 L285.3966,564.7815 L284.8688,560.9812 L290.0963,567.3826 L281.8961,566.3522 " fill="#A80036" style="stroke:#A80036;stroke-width:1.0;"/><ellipse cx="226" cy="497.5" fill="#A80036" rx="3" ry="3" style="stroke:#A80036;stroke-width:1.0;stroke-dasharray:3.0,3.0;"/><path d="M63,416.5 L76,416.5 C85.3105,416.5 95.1161,416.5 104.785,416.5 " fill="none" style="stroke:#A80036;stroke-width:1.0;stroke-dasharray:3.0,3.0;"/><path d="M104.785,419.5852 L107.0989,416.5 L104.785,413.4148 L112.4979,416.5 L104.785,419.5852 " fill="#A80036" style="stroke:#A80036;stroke-width:1.0;"/><ellipse cx="63" cy="416.5" fill="#A80036" rx="3" ry="3" style="stroke:#A80036;stroke-width:1.0;stroke-dasharray:3.0,3.0;"/><!--MD5=[4ca781267c4d681c4a8decd162c81fc3]
@startyaml

client:
  type: HTTP
  # 回调结果
  result:
    # JSON/XML
    date_type: JSON
    # xpath 方式获取对应 code
    code: $.code
    msg: $.msg
  # 回调次数
  count: 3
  is_auth: true
  # Webservice 使用时只需要配置用户名密码
  auth:
    url: http://ip:port/abc
    # HEADER(token)/QUERY(token)/BASIC
    grant_type: QUERY
    # AUTH_JSON = 调用时参数为拼装好的 json，参数内容通过 data 进行调整
    # AUTH_XML = 调用时参数为拼装好的 xml，参数内容通过 data 进行调整
    # AUTH_QUERY = ?contact_id=1&cdr_timestart=2
    # AUTH_FORM = 通过 Form 进行提交
    request_type: AUTH_JSON
    # xml root 节点名称,多级通过/进行分割，如：root/param <root><param></param></root>
    xml_root: root
    # 认证请求方式
    method: POST
    # 数据映射
    data:
      username: "username"
      password: "password"
    username: zhangh
    password: 123456
    # token 有效期秒
    # 0 永久有效
    expires_in: 3600
    # AUTH_JSON/AUTH_XML
    result_type: AUTH_JSON
    # xpath 方式获取对应 token
    token: $.access_token
    code: $.code
    # HEADER = http header 的 key 如 Authorization: Bearer  ;
    # QUERY = http query 参数名称 如 access_token= ;
    # BASIC = Cookie 或空 ;
    # 固定token时写在参数后面，如：access_token=123456789 或 Authorization: Bearer 123456789;
    auth_key: access_token=
  request:
    # JSON = 调用时参数为拼装好的 json，参数内容通过 data 进行调整
    # XML = 调用时参数为拼装好的 xml，参数内容通过 data 进行调整
    # PARAM = 按照data配置顺序进行远程调用填充
    # QUERY = ?contact_id=1&cdr_timestart=2
    # FORM = 通过 Form 进行提交
    data_type: JSON
    # xml root 节点名称,多级通过/进行分割，如：root/param <root><param></param></root>
    xml_root: root
    data:
      device_code: "sn"
      contact_id: "contactId"
      cdr_id: "path"
      cdr_timestart: "startTime"
      cdr_strduration: "callLength"
      cdr_recflag: "callRecFlag"
      cdr_type: "callType"
      dial_info_phone: "dialInfoPhone"
      dial_info_name: "dialInfoName"
  http:
    method: POST
    url: http://ip:port/post
  webservice:
    wsl: http://ip:port/interfaces/sg/kx01/info/service/PreInfoApplyWebService?wsl
    method: getUser

@endyaml

PlantUML version 1.2021.7(Sun May 23 20:40:07 CST 2021)
(GPL source distribution)
Java Runtime: Java(TM) SE Runtime Environment
JVM: Java HotSpot(TM) 64-Bit Server VM
Default Encoding: GBK
Language: zh
Country: CN
--></g></svg>