<?xml version="1.0" encoding="UTF-8" standalone="no"?><svg xmlns="http://www.w3.org/2000/svg" xmlns:xlink="http://www.w3.org/1999/xlink" contentScriptType="application/ecmascript" contentStyleType="text/css" height="625px" preserveAspectRatio="none" style="width:1197px;height:625px;background:#FFFFFF;" version="1.1" viewBox="0 0 1197 625" width="1197px" zoomAndPan="magnify"><defs/><g><rect fill="#FEFECE" height="23.1201" rx="5" ry="5" style="stroke:#FEFECE;stroke-width:1.5;" width="65" x="10" y="405"/><text fill="#000000" font-family="sans-serif" font-size="14" lengthAdjust="spacing" textLength="33" x="15" y="423.0439">client</text><text fill="#000000" font-family="sans-serif" font-size="14" lengthAdjust="spacing" textLength="0" x="70" y="423.0439"/><line style="stroke:#A80036;stroke-width:1.0;" x1="53" x2="53" y1="405" y2="428.1201"/><rect fill="none" height="23.1201" rx="5" ry="5" style="stroke:#A80036;stroke-width:1.5;" width="65" x="10" y="405"/><rect fill="#FEFECE" height="184.9609" rx="5" ry="5" style="stroke:#FEFECE;stroke-width:1.5;" width="286" x="112" y="324"/><text fill="#000000" font-family="sans-serif" font-size="14" lengthAdjust="spacing" textLength="27" x="117" y="342.0439">type</text><text fill="#000000" font-family="sans-serif" font-size="14" lengthAdjust="spacing" textLength="196" x="197" y="342.0439">请求方式(HTTP/WEBSERVICE)</text><line style="stroke:#A80036;stroke-width:1.0;" x1="192" x2="192" y1="324" y2="347.1201"/><line style="stroke:#A80036;stroke-width:1.0;" x1="112" x2="398" y1="347.1201" y2="347.1201"/><text fill="#000000" font-family="sans-serif" font-size="14" lengthAdjust="spacing" textLength="35" x="117" y="365.1641">result</text><text fill="#000000" font-family="sans-serif" font-size="14" lengthAdjust="spacing" textLength="0" x="209" y="365.1641"/><line style="stroke:#A80036;stroke-width:1.0;" x1="192" x2="192" y1="347.1201" y2="370.2402"/><line style="stroke:#A80036;stroke-width:1.0;" x1="112" x2="398" y1="370.2402" y2="370.2402"/><text fill="#000000" font-family="sans-serif" font-size="14" lengthAdjust="spacing" textLength="35" x="117" y="388.2842">count</text><text fill="#000000" font-family="sans-serif" font-size="14" lengthAdjust="spacing" textLength="74" x="197" y="388.2842">回调次数(3)</text><line style="stroke:#A80036;stroke-width:1.0;" x1="192" x2="192" y1="370.2402" y2="393.3604"/><line style="stroke:#A80036;stroke-width:1.0;" x1="112" x2="398" y1="393.3604" y2="393.3604"/><text fill="#000000" font-family="sans-serif" font-size="14" lengthAdjust="spacing" textLength="46" x="117" y="411.4043">is_auth</text><text fill="#000000" font-family="sans-serif" font-size="14" lengthAdjust="spacing" textLength="124" x="197" y="411.4043">是否开启认证(flash)</text><line style="stroke:#A80036;stroke-width:1.0;" x1="192" x2="192" y1="393.3604" y2="416.4805"/><line style="stroke:#A80036;stroke-width:1.0;" x1="112" x2="398" y1="416.4805" y2="416.4805"/><text fill="#000000" font-family="sans-serif" font-size="14" lengthAdjust="spacing" textLength="28" x="117" y="434.5244">auth</text><text fill="#000000" font-family="sans-serif" font-size="14" lengthAdjust="spacing" textLength="0" x="209" y="434.5244"/><line style="stroke:#A80036;stroke-width:1.0;" x1="192" x2="192" y1="416.4805" y2="439.6006"/><line style="stroke:#A80036;stroke-width:1.0;" x1="112" x2="398" y1="439.6006" y2="439.6006"/><text fill="#000000" font-family="sans-serif" font-size="14" lengthAdjust="spacing" textLength="48" x="117" y="457.6445">request</text><text fill="#000000" font-family="sans-serif" font-size="14" lengthAdjust="spacing" textLength="0" x="209" y="457.6445"/><line style="stroke:#A80036;stroke-width:1.0;" x1="192" x2="192" y1="439.6006" y2="462.7207"/><line style="stroke:#A80036;stroke-width:1.0;" x1="112" x2="398" y1="462.7207" y2="462.7207"/><text fill="#000000" font-family="sans-serif" font-size="14" lengthAdjust="spacing" textLength="24" x="117" y="480.7646">http</text><text fill="#000000" font-family="sans-serif" font-size="14" lengthAdjust="spacing" textLength="0" x="209" y="480.7646"/><line style="stroke:#A80036;stroke-width:1.0;" x1="192" x2="192" y1="462.7207" y2="485.8408"/><line style="stroke:#A80036;stroke-width:1.0;" x1="112" x2="398" y1="485.8408" y2="485.8408"/><text fill="#000000" font-family="sans-serif" font-size="14" lengthAdjust="spacing" textLength="70" x="117" y="503.8848">webservice</text><text fill="#000000" font-family="sans-serif" font-size="14" lengthAdjust="spacing" textLength="0" x="209" y="503.8848"/><line style="stroke:#A80036;stroke-width:1.0;" x1="192" x2="192" y1="485.8408" y2="508.9609"/><rect fill="none" height="184.9609" rx="5" ry="5" style="stroke:#A80036;stroke-width:1.5;" width="286" x="112" y="324"/><rect fill="#FEFECE" height="69.3604" rx="5" ry="5" style="stroke:#FEFECE;stroke-width:1.5;" width="243" x="581.5" y="10"/><text fill="#000000" font-family="sans-serif" font-size="14" lengthAdjust="spacing" textLength="63" x="586.5" y="28.0439">date_type</text><text fill="#000000" font-family="sans-serif" font-size="14" lengthAdjust="spacing" textLength="160" x="659.5" y="28.0439">回调结果类型(JSON/XML)</text><line style="stroke:#A80036;stroke-width:1.0;" x1="654.5" x2="654.5" y1="10" y2="33.1201"/><line style="stroke:#A80036;stroke-width:1.0;" x1="581.5" x2="824.5" y1="33.1201" y2="33.1201"/><text fill="#000000" font-family="sans-serif" font-size="14" lengthAdjust="spacing" textLength="31" x="586.5" y="51.1641">code</text><text fill="#000000" font-family="sans-serif" font-size="14" lengthAdjust="spacing" textLength="147" x="659.5" y="51.1641">响应编码(xpath $.code)</text><line style="stroke:#A80036;stroke-width:1.0;" x1="654.5" x2="654.5" y1="33.1201" y2="56.2402"/><line style="stroke:#A80036;stroke-width:1.0;" x1="581.5" x2="824.5" y1="56.2402" y2="56.2402"/><text fill="#000000" font-family="sans-serif" font-size="14" lengthAdjust="spacing" textLength="26" x="586.5" y="74.2842">msg</text><text fill="#000000" font-family="sans-serif" font-size="14" lengthAdjust="spacing" textLength="142" x="659.5" y="74.2842">响应消息(xpath $.msg)</text><line style="stroke:#A80036;stroke-width:1.0;" x1="654.5" x2="654.5" y1="56.2402" y2="79.3604"/><rect fill="none" height="69.3604" rx="5" ry="5" style="stroke:#A80036;stroke-width:1.5;" width="243" x="581.5" y="10"/><rect fill="#FEFECE" height="300.5615" rx="5" ry="5" style="stroke:#FEFECE;stroke-width:1.5;" width="536" x="435" y="97"/><text fill="#000000" font-family="sans-serif" font-size="14" lengthAdjust="spacing" textLength="16" x="440" y="115.0439">url</text><text fill="#000000" font-family="sans-serif" font-size="14" lengthAdjust="spacing" textLength="169" x="533" y="115.0439">认证地址(http://ip:port/abc)</text><line style="stroke:#A80036;stroke-width:1.0;" x1="528" x2="528" y1="97" y2="120.1201"/><line style="stroke:#A80036;stroke-width:1.0;" x1="435" x2="971" y1="120.1201" y2="120.1201"/><text fill="#000000" font-family="sans-serif" font-size="14" lengthAdjust="spacing" textLength="68" x="440" y="138.1641">grant_type</text><text fill="#000000" font-family="sans-serif" font-size="14" lengthAdjust="spacing" textLength="264" x="533" y="138.1641">认证方式(HEADER(token)/QUERY(token))</text><line style="stroke:#A80036;stroke-width:1.0;" x1="528" x2="528" y1="120.1201" y2="143.2402"/><line style="stroke:#A80036;stroke-width:1.0;" x1="435" x2="971" y1="143.2402" y2="143.2402"/><text fill="#000000" font-family="sans-serif" font-size="14" lengthAdjust="spacing" textLength="83" x="440" y="161.2842">request_type</text><text fill="#000000" font-family="sans-serif" font-size="14" lengthAdjust="spacing" textLength="433" x="533" y="161.2842">认证参数类型(AUTH_JSON/AUTH_XML/AUTH_QUERY/AUTH_FORM)</text><line style="stroke:#A80036;stroke-width:1.0;" x1="528" x2="528" y1="143.2402" y2="166.3604"/><line style="stroke:#A80036;stroke-width:1.0;" x1="435" x2="971" y1="166.3604" y2="166.3604"/><text fill="#000000" font-family="sans-serif" font-size="14" lengthAdjust="spacing" textLength="53" x="440" y="184.4043">xml_root</text><text fill="#000000" font-family="sans-serif" font-size="14" lengthAdjust="spacing" textLength="122" x="533" y="184.4043">XML 节点配置(root)</text><line style="stroke:#A80036;stroke-width:1.0;" x1="528" x2="528" y1="166.3604" y2="189.4805"/><line style="stroke:#A80036;stroke-width:1.0;" x1="435" x2="971" y1="189.4805" y2="189.4805"/><text fill="#000000" font-family="sans-serif" font-size="14" lengthAdjust="spacing" textLength="47" x="440" y="207.5244">method</text><text fill="#000000" font-family="sans-serif" font-size="14" lengthAdjust="spacing" textLength="104" x="533" y="207.5244">请求方式(POST)</text><line style="stroke:#A80036;stroke-width:1.0;" x1="528" x2="528" y1="189.4805" y2="212.6006"/><line style="stroke:#A80036;stroke-width:1.0;" x1="435" x2="971" y1="212.6006" y2="212.6006"/><text fill="#000000" font-family="sans-serif" font-size="14" lengthAdjust="spacing" textLength="28" x="440" y="230.6445">data</text><text fill="#000000" font-family="sans-serif" font-size="14" lengthAdjust="spacing" textLength="0" x="545" y="230.6445"/><line style="stroke:#A80036;stroke-width:1.0;" x1="528" x2="528" y1="212.6006" y2="235.7207"/><line style="stroke:#A80036;stroke-width:1.0;" x1="435" x2="971" y1="235.7207" y2="235.7207"/><text fill="#000000" font-family="sans-serif" font-size="14" lengthAdjust="spacing" textLength="63" x="440" y="253.7646">username</text><text fill="#000000" font-family="sans-serif" font-size="14" lengthAdjust="spacing" textLength="56" x="533" y="253.7646">认证用户</text><line style="stroke:#A80036;stroke-width:1.0;" x1="528" x2="528" y1="235.7207" y2="258.8408"/><line style="stroke:#A80036;stroke-width:1.0;" x1="435" x2="971" y1="258.8408" y2="258.8408"/><text fill="#000000" font-family="sans-serif" font-size="14" lengthAdjust="spacing" textLength="60" x="440" y="276.8848">password</text><text fill="#000000" font-family="sans-serif" font-size="14" lengthAdjust="spacing" textLength="56" x="533" y="276.8848">认证密码</text><line style="stroke:#A80036;stroke-width:1.0;" x1="528" x2="528" y1="258.8408" y2="281.9609"/><line style="stroke:#A80036;stroke-width:1.0;" x1="435" x2="971" y1="281.9609" y2="281.9609"/><text fill="#000000" font-family="sans-serif" font-size="14" lengthAdjust="spacing" textLength="64" x="440" y="300.0049">expires_in</text><text fill="#000000" font-family="sans-serif" font-size="14" lengthAdjust="spacing" textLength="155" x="533" y="300.0049">token有效期(0 永久有效)</text><line style="stroke:#A80036;stroke-width:1.0;" x1="528" x2="528" y1="281.9609" y2="305.0811"/><line style="stroke:#A80036;stroke-width:1.0;" x1="435" x2="971" y1="305.0811" y2="305.0811"/><text fill="#000000" font-family="sans-serif" font-size="14" lengthAdjust="spacing" textLength="70" x="440" y="323.125">result_type</text><text fill="#000000" font-family="sans-serif" font-size="14" lengthAdjust="spacing" textLength="220" x="533" y="323.125">结果类型(AUTH_JSON/AUTH_XML)</text><line style="stroke:#A80036;stroke-width:1.0;" x1="528" x2="528" y1="305.0811" y2="328.2012"/><line style="stroke:#A80036;stroke-width:1.0;" x1="435" x2="971" y1="328.2012" y2="328.2012"/><text fill="#000000" font-family="sans-serif" font-size="14" lengthAdjust="spacing" textLength="35" x="440" y="346.2451">token</text><text fill="#000000" font-family="sans-serif" font-size="14" lengthAdjust="spacing" textLength="182" x="533" y="346.2451">token(xpath $.access_token)</text><line style="stroke:#A80036;stroke-width:1.0;" x1="528" x2="528" y1="328.2012" y2="351.3213"/><line style="stroke:#A80036;stroke-width:1.0;" x1="435" x2="971" y1="351.3213" y2="351.3213"/><text fill="#000000" font-family="sans-serif" font-size="14" lengthAdjust="spacing" textLength="31" x="440" y="369.3652">code</text><text fill="#000000" font-family="sans-serif" font-size="14" lengthAdjust="spacing" textLength="147" x="533" y="369.3652">响应编码(xpath $.code)</text><line style="stroke:#A80036;stroke-width:1.0;" x1="528" x2="528" y1="351.3213" y2="374.4414"/><line style="stroke:#A80036;stroke-width:1.0;" x1="435" x2="971" y1="374.4414" y2="374.4414"/><text fill="#000000" font-family="sans-serif" font-size="14" lengthAdjust="spacing" textLength="58" x="440" y="392.4854">auth_key</text><text fill="#000000" font-family="sans-serif" font-size="14" lengthAdjust="spacing" textLength="152" x="533" y="392.4854">认证参数配合grant_type</text><line style="stroke:#A80036;stroke-width:1.0;" x1="528" x2="528" y1="374.4414" y2="397.5615"/><rect fill="none" height="300.5615" rx="5" ry="5" style="stroke:#A80036;stroke-width:1.5;" width="536" x="435" y="97"/><rect fill="#FEFECE" height="46.2402" rx="5" ry="5" style="stroke:#FEFECE;stroke-width:1.5;" width="139" x="1027" y="200.5"/><text fill="#000000" font-family="sans-serif" font-size="14" lengthAdjust="spacing" textLength="63" x="1032" y="218.5439">username</text><text fill="#000000" font-family="sans-serif" font-size="14" lengthAdjust="spacing" textLength="56" x="1105" y="218.5439">用户映射</text><line style="stroke:#A80036;stroke-width:1.0;" x1="1100" x2="1100" y1="200.5" y2="223.6201"/><line style="stroke:#A80036;stroke-width:1.0;" x1="1027" x2="1166" y1="223.6201" y2="223.6201"/><text fill="#000000" font-family="sans-serif" font-size="14" lengthAdjust="spacing" textLength="60" x="1032" y="241.6641">password</text><text fill="#000000" font-family="sans-serif" font-size="14" lengthAdjust="spacing" textLength="56" x="1105" y="241.6641">密码映射</text><line style="stroke:#A80036;stroke-width:1.0;" x1="1100" x2="1100" y1="223.6201" y2="246.7402"/><rect fill="none" height="46.2402" rx="5" ry="5" style="stroke:#A80036;stroke-width:1.5;" width="139" x="1027" y="200.5"/><rect fill="#FEFECE" height="69.3604" rx="5" ry="5" style="stroke:#FEFECE;stroke-width:1.5;" width="364" x="521" y="416"/><text fill="#000000" font-family="sans-serif" font-size="14" lengthAdjust="spacing" textLength="63" x="526" y="434.0439">data_type</text><text fill="#000000" font-family="sans-serif" font-size="14" lengthAdjust="spacing" textLength="281" x="599" y="434.0439">请求类型(JSON/XML/PARAM/QUERY/FORM)</text><line style="stroke:#A80036;stroke-width:1.0;" x1="594" x2="594" y1="416" y2="439.1201"/><line style="stroke:#A80036;stroke-width:1.0;" x1="521" x2="885" y1="439.1201" y2="439.1201"/><text fill="#000000" font-family="sans-serif" font-size="14" lengthAdjust="spacing" textLength="53" x="526" y="457.1641">xml_root</text><text fill="#000000" font-family="sans-serif" font-size="14" lengthAdjust="spacing" textLength="122" x="599" y="457.1641">XML 节点配置(root)</text><line style="stroke:#A80036;stroke-width:1.0;" x1="594" x2="594" y1="439.1201" y2="462.2402"/><line style="stroke:#A80036;stroke-width:1.0;" x1="521" x2="885" y1="462.2402" y2="462.2402"/><text fill="#000000" font-family="sans-serif" font-size="14" lengthAdjust="spacing" textLength="28" x="526" y="480.2842">data</text><text fill="#000000" font-family="sans-serif" font-size="14" lengthAdjust="spacing" textLength="0" x="611" y="480.2842"/><line style="stroke:#A80036;stroke-width:1.0;" x1="594" x2="594" y1="462.2402" y2="485.3604"/><rect fill="none" height="69.3604" rx="5" ry="5" style="stroke:#A80036;stroke-width:1.5;" width="364" x="521" y="416"/><rect fill="#FEFECE" height="208.0811" rx="5" ry="5" style="stroke:#FEFECE;stroke-width:1.5;" width="177" x="1008" y="369.5"/><text fill="#000000" font-family="sans-serif" font-size="14" lengthAdjust="spacing" textLength="80" x="1013" y="387.5439">device_code</text><text fill="#000000" font-family="sans-serif" font-size="14" lengthAdjust="spacing" textLength="56" x="1124" y="387.5439">参数映射</text><line style="stroke:#A80036;stroke-width:1.0;" x1="1119" x2="1119" y1="369.5" y2="392.6201"/><line style="stroke:#A80036;stroke-width:1.0;" x1="1008" x2="1185" y1="392.6201" y2="392.6201"/><text fill="#000000" font-family="sans-serif" font-size="14" lengthAdjust="spacing" textLength="65" x="1013" y="410.6641">contact_id</text><text fill="#000000" font-family="sans-serif" font-size="14" lengthAdjust="spacing" textLength="56" x="1124" y="410.6641">参数映射</text><line style="stroke:#A80036;stroke-width:1.0;" x1="1119" x2="1119" y1="392.6201" y2="415.7402"/><line style="stroke:#A80036;stroke-width:1.0;" x1="1008" x2="1185" y1="415.7402" y2="415.7402"/><text fill="#000000" font-family="sans-serif" font-size="14" lengthAdjust="spacing" textLength="39" x="1013" y="433.7842">cdr_id</text><text fill="#000000" font-family="sans-serif" font-size="14" lengthAdjust="spacing" textLength="56" x="1124" y="433.7842">参数映射</text><line style="stroke:#A80036;stroke-width:1.0;" x1="1119" x2="1119" y1="415.7402" y2="438.8604"/><line style="stroke:#A80036;stroke-width:1.0;" x1="1008" x2="1185" y1="438.8604" y2="438.8604"/><text fill="#000000" font-family="sans-serif" font-size="14" lengthAdjust="spacing" textLength="82" x="1013" y="456.9043">cdr_timestart</text><text fill="#000000" font-family="sans-serif" font-size="14" lengthAdjust="spacing" textLength="56" x="1124" y="456.9043">参数映射</text><line style="stroke:#A80036;stroke-width:1.0;" x1="1119" x2="1119" y1="438.8604" y2="461.9805"/><line style="stroke:#A80036;stroke-width:1.0;" x1="1008" x2="1185" y1="461.9805" y2="461.9805"/><text fill="#000000" font-family="sans-serif" font-size="14" lengthAdjust="spacing" textLength="96" x="1013" y="480.0244">cdr_strduration</text><text fill="#000000" font-family="sans-serif" font-size="14" lengthAdjust="spacing" textLength="56" x="1124" y="480.0244">参数映射</text><line style="stroke:#A80036;stroke-width:1.0;" x1="1119" x2="1119" y1="461.9805" y2="485.1006"/><line style="stroke:#A80036;stroke-width:1.0;" x1="1008" x2="1185" y1="485.1006" y2="485.1006"/><text fill="#000000" font-family="sans-serif" font-size="14" lengthAdjust="spacing" textLength="71" x="1013" y="503.1445">cdr_recflag</text><text fill="#000000" font-family="sans-serif" font-size="14" lengthAdjust="spacing" textLength="56" x="1124" y="503.1445">参数映射</text><line style="stroke:#A80036;stroke-width:1.0;" x1="1119" x2="1119" y1="485.1006" y2="508.2207"/><line style="stroke:#A80036;stroke-width:1.0;" x1="1008" x2="1185" y1="508.2207" y2="508.2207"/><text fill="#000000" font-family="sans-serif" font-size="14" lengthAdjust="spacing" textLength="55" x="1013" y="526.2646">cdr_type</text><text fill="#000000" font-family="sans-serif" font-size="14" lengthAdjust="spacing" textLength="56" x="1124" y="526.2646">参数映射</text><line style="stroke:#A80036;stroke-width:1.0;" x1="1119" x2="1119" y1="508.2207" y2="531.3408"/><line style="stroke:#A80036;stroke-width:1.0;" x1="1008" x2="1185" y1="531.3408" y2="531.3408"/><text fill="#000000" font-family="sans-serif" font-size="14" lengthAdjust="spacing" textLength="101" x="1013" y="549.3848">dial_info_phone</text><text fill="#000000" font-family="sans-serif" font-size="14" lengthAdjust="spacing" textLength="56" x="1124" y="549.3848">参数映射</text><line style="stroke:#A80036;stroke-width:1.0;" x1="1119" x2="1119" y1="531.3408" y2="554.4609"/><line style="stroke:#A80036;stroke-width:1.0;" x1="1008" x2="1185" y1="554.4609" y2="554.4609"/><text fill="#000000" font-family="sans-serif" font-size="14" lengthAdjust="spacing" textLength="96" x="1013" y="572.5049">dial_info_name</text><text fill="#000000" font-family="sans-serif" font-size="14" lengthAdjust="spacing" textLength="56" x="1124" y="572.5049">参数映射</text><line style="stroke:#A80036;stroke-width:1.0;" x1="1119" x2="1119" y1="554.4609" y2="577.5811"/><rect fill="none" height="208.0811" rx="5" ry="5" style="stroke:#A80036;stroke-width:1.5;" width="177" x="1008" y="369.5"/><rect fill="#FEFECE" height="46.2402" rx="5" ry="5" style="stroke:#FEFECE;stroke-width:1.5;" width="240" x="583" y="503.5"/><text fill="#000000" font-family="sans-serif" font-size="14" lengthAdjust="spacing" textLength="47" x="588" y="521.5439">method</text><text fill="#000000" font-family="sans-serif" font-size="14" lengthAdjust="spacing" textLength="137" x="645" y="521.5439">请求方式(POST/GET)</text><line style="stroke:#A80036;stroke-width:1.0;" x1="640" x2="640" y1="503.5" y2="526.6201"/><line style="stroke:#A80036;stroke-width:1.0;" x1="583" x2="823" y1="526.6201" y2="526.6201"/><text fill="#000000" font-family="sans-serif" font-size="14" lengthAdjust="spacing" textLength="16" x="588" y="544.6641">url</text><text fill="#000000" font-family="sans-serif" font-size="14" lengthAdjust="spacing" textLength="173" x="645" y="544.6641">请求地址(http://ip:port/post)</text><line style="stroke:#A80036;stroke-width:1.0;" x1="640" x2="640" y1="526.6201" y2="549.7402"/><rect fill="none" height="46.2402" rx="5" ry="5" style="stroke:#A80036;stroke-width:1.5;" width="240" x="583" y="503.5"/><rect fill="#FEFECE" height="46.2402" rx="5" ry="5" style="stroke:#FEFECE;stroke-width:1.5;" width="236" x="585" y="567.5"/><text fill="#000000" font-family="sans-serif" font-size="14" lengthAdjust="spacing" textLength="19" x="590" y="585.5439">wsl</text><text fill="#000000" font-family="sans-serif" font-size="14" lengthAdjust="spacing" textLength="169" x="647" y="585.5439">请求地址(http://ip:port?wsl)</text><line style="stroke:#A80036;stroke-width:1.0;" x1="642" x2="642" y1="567.5" y2="590.6201"/><line style="stroke:#A80036;stroke-width:1.0;" x1="585" x2="821" y1="590.6201" y2="590.6201"/><text fill="#000000" font-family="sans-serif" font-size="14" lengthAdjust="spacing" textLength="47" x="590" y="608.6641">method</text><text fill="#000000" font-family="sans-serif" font-size="14" lengthAdjust="spacing" textLength="84" x="647" y="608.6641">请求方法(xxx)</text><line style="stroke:#A80036;stroke-width:1.0;" x1="642" x2="642" y1="590.6201" y2="613.7402"/><rect fill="none" height="46.2402" rx="5" ry="5" style="stroke:#A80036;stroke-width:1.5;" width="236" x="585" y="567.5"/><path d="M386,358.5 L399,358.5 C459.7513,358.5 392.6331,131.0403 435,87.5 C470.6474,50.8653 524.2334,37.5848 574.1045,34.4323 " fill="none" style="stroke:#A80036;stroke-width:1.0;stroke-dasharray:3.0,3.0;"/><path d="M574.2674,37.4915 L576.3989,34.3102 L573.9416,31.3731 L581.7526,34.0251 L574.2674,37.4915 " fill="#A80036" style="stroke:#A80036;stroke-width:1.0;"/><ellipse cx="386" cy="358.5" fill="#A80036" rx="3" ry="3" style="stroke:#A80036;stroke-width:1.0;stroke-dasharray:3.0,3.0;"/><path d="M959,223.5 L972,223.5 C987.4479,223.5 1003.9782,223.5 1019.7705,223.5 " fill="none" style="stroke:#A80036;stroke-width:1.0;stroke-dasharray:3.0,3.0;"/><path d="M1019.7705,226.5741 L1022.0761,223.5 L1019.7705,220.4259 L1027.4559,223.5 L1019.7705,226.5741 " fill="#A80036" style="stroke:#A80036;stroke-width:1.0;"/><ellipse cx="959" cy="223.5" fill="#A80036" rx="3" ry="3" style="stroke:#A80036;stroke-width:1.0;stroke-dasharray:3.0,3.0;"/><path d="M386,427.5 L399,427.5 C400.1609,427.5 417.8004,417.4007 444.0468,401.9865 " fill="none" style="stroke:#A80036;stroke-width:1.0;stroke-dasharray:3.0,3.0;"/><path d="M445.5696,404.5762 L445.9891,400.8443 L442.5239,399.3968 L450.5211,398.1793 L445.5696,404.5762 " fill="#A80036" style="stroke:#A80036;stroke-width:1.0;"/><ellipse cx="386" cy="427.5" fill="#A80036" rx="3" ry="3" style="stroke:#A80036;stroke-width:1.0;stroke-dasharray:3.0,3.0;"/><path d="M873.5,473.5 L886.5,473.5 C923.8519,473.5 964.9497,473.5 1000.7772,473.5 " fill="none" style="stroke:#A80036;stroke-width:1.0;stroke-dasharray:3.0,3.0;"/><path d="M1000.7772,476.5248 L1003.0458,473.5 L1000.7772,470.4752 L1008.3392,473.5 L1000.7772,476.5248 " fill="#A80036" style="stroke:#A80036;stroke-width:1.0;"/><ellipse cx="873.5" cy="473.5" fill="#A80036" rx="3" ry="3" style="stroke:#A80036;stroke-width:1.0;stroke-dasharray:3.0,3.0;"/><path d="M386,450.5 L399,450.5 C436.0483,450.5 475.6406,450.5 513.5845,450.5 " fill="none" style="stroke:#A80036;stroke-width:1.0;stroke-dasharray:3.0,3.0;"/><path d="M513.5845,453.5262 L515.8542,450.5 L513.5845,447.4738 L521.1501,450.5 L513.5845,453.5262 " fill="#A80036" style="stroke:#A80036;stroke-width:1.0;"/><ellipse cx="386" cy="450.5" fill="#A80036" rx="3" ry="3" style="stroke:#A80036;stroke-width:1.0;stroke-dasharray:3.0,3.0;"/><path d="M386,473.5 L399,473.5 C417.5233,473.5 417.438,488.6105 435,494.5 C479.6319,509.4674 530.5166,517.6121 575.8389,521.9853 " fill="none" style="stroke:#A80036;stroke-width:1.0;stroke-dasharray:3.0,3.0;"/><path d="M575.5605,524.9915 L578.0935,522.194 L576.1172,518.9791 L583.3544,522.6811 L575.5605,524.9915 " fill="#A80036" style="stroke:#A80036;stroke-width:1.0;"/><ellipse cx="386" cy="473.5" fill="#A80036" rx="3" ry="3" style="stroke:#A80036;stroke-width:1.0;stroke-dasharray:3.0,3.0;"/><path d="M386,497.5 L399,497.5 C430.4803,497.5 408.6394,541.2915 435,558.5 C476.6376,585.6816 529.8255,595.8058 577.7896,598.3522 " fill="none" style="stroke:#A80036;stroke-width:1.0;stroke-dasharray:3.0,3.0;"/><path d="M577.6516,601.4124 L580.0848,598.4557 L577.9276,595.292 L585.4401,598.6972 L577.6516,601.4124 " fill="#A80036" style="stroke:#A80036;stroke-width:1.0;"/><ellipse cx="386" cy="497.5" fill="#A80036" rx="3" ry="3" style="stroke:#A80036;stroke-width:1.0;stroke-dasharray:3.0,3.0;"/><path d="M63,416.5 L76,416.5 C85.292,416.5 94.8562,416.5 104.5011,416.5 " fill="none" style="stroke:#A80036;stroke-width:1.0;stroke-dasharray:3.0,3.0;"/><path d="M104.5011,419.5995 L106.8258,416.5 L104.5011,413.4005 L112.2499,416.5 L104.5011,419.5995 " fill="#A80036" style="stroke:#A80036;stroke-width:1.0;"/><ellipse cx="63" cy="416.5" fill="#A80036" rx="3" ry="3" style="stroke:#A80036;stroke-width:1.0;stroke-dasharray:3.0,3.0;"/><!--MD5=[0daba2a3c305d889c4616e88fa208b96]
@startyaml

client:
  type: 请求方式(HTTP/WEBSERVICE)
  result:
    date_type: 回调结果类型(JSON/XML)
    code: 响应编码(xpath $.code)
    msg: 响应消息(xpath $.msg)
  count: 回调次数(3)
  is_auth: 是否开启认证(flash)
  auth:
    url: 认证地址(http://ip:port/abc)
    grant_type: 认证方式(HEADER(token)/QUERY(token))
    request_type: 认证参数类型(AUTH_JSON/AUTH_XML/AUTH_QUERY/AUTH_FORM)
    xml_root: XML 节点配置(root)
    method: 请求方式(POST)
    data:
      username: "用户映射"
      password: "密码映射"
    username: 认证用户
    password: 认证密码
    expires_in: token有效期(0 永久有效)
    result_type: 结果类型(AUTH_JSON/AUTH_XML)
    token: token(xpath $.access_token)
    code: 响应编码(xpath $.code)
    auth_key: 认证参数配合grant_type
  request:
    data_type: 请求类型(JSON/XML/PARAM/QUERY/FORM)
    xml_root: XML 节点配置(root)
    data:
      device_code: "参数映射"
      contact_id: "参数映射"
      cdr_id: "参数映射"
      cdr_timestart: "参数映射"
      cdr_strduration: "参数映射"
      cdr_recflag: "参数映射"
      cdr_type: "参数映射"
      dial_info_phone: "参数映射"
      dial_info_name: "参数映射"
  http:
    method: 请求方式(POST/GET)
    url: 请求地址(http://ip:port/post)
  webservice:
    wsl: 请求地址(http://ip:port?wsl)
    method: 请求方法(xxx)

@endyaml

PlantUML version 1.2021.7(Sun May 23 20:40:07 CST 2021)
(GPL source distribution)
Java Runtime: Java(TM) SE Runtime Environment
JVM: Java HotSpot(TM) 64-Bit Server VM
Default Encoding: GBK
Language: zh
Country: CN
--></g></svg>